<svg width="16" height="16" viewBox="0 0 16 16" fill="none" xmlns="http://www.w3.org/2000/svg">
<path d="M13.3333 2.66669H2.66659C1.93125 2.66669 1.33325 3.26469 1.33325 4.00002V12C1.33325 12.7354 1.93125 13.3334 2.66659 13.3334H13.3333C14.0686 13.3334 14.6666 12.7354 14.6666 12V4.00002C14.6666 3.26469 14.0686 2.66669 13.3333 2.66669ZM8.33325 10.6667C7.89122 10.6667 7.4673 10.4911 7.15474 10.1785C6.84218 9.86597 6.66659 9.44205 6.66659 9.00002C6.66659 8.55799 6.84218 8.13407 7.15474 7.82151C7.4673 7.50895 7.89122 7.33335 8.33325 7.33335C8.69503 7.33419 9.04647 7.45415 9.33325 7.67469C8.93059 7.97869 8.66659 8.45669 8.66659 9.00002C8.66659 9.54335 8.93059 10.0214 9.33325 10.3254C9.04647 10.5459 8.69503 10.6659 8.33325 10.6667V10.6667ZM10.9999 10.6667C10.5579 10.6667 10.134 10.4911 9.82141 10.1785C9.50885 9.86597 9.33325 9.44205 9.33325 9.00002C9.33325 8.55799 9.50885 8.13407 9.82141 7.82151C10.134 7.50895 10.5579 7.33335 10.9999 7.33335C11.4419 7.33335 11.8659 7.50895 12.1784 7.82151C12.491 8.13407 12.6666 8.55799 12.6666 9.00002C12.6666 9.44205 12.491 9.86597 12.1784 10.1785C11.8659 10.4911 11.4419 10.6667 10.9999 10.6667Z" fill="#3E89F8"/>
</svg>
