<svg width="16" height="16" viewBox="0 0 16 16" fill="none" xmlns="http://www.w3.org/2000/svg">
<path d="M1.99999 9.33335H3.33332V14C3.33332 14.1768 3.40356 14.3464 3.52858 14.4714C3.65361 14.5964 3.82318 14.6667 3.99999 14.6667H12C12.1768 14.6667 12.3464 14.5964 12.4714 14.4714C12.5964 14.3464 12.6667 14.1768 12.6667 14V9.33335H14C14.1288 9.33346 14.2549 9.29617 14.363 9.22599C14.471 9.15581 14.5564 9.05577 14.6087 8.93802C14.6613 8.82033 14.6786 8.68987 14.6585 8.56252C14.6384 8.43517 14.5817 8.31641 14.4953 8.22068L8.49532 1.55402C8.24265 1.27268 7.75732 1.27268 7.50465 1.55402L1.50465 8.22068C1.41845 8.31646 1.36185 8.43517 1.3417 8.56244C1.32155 8.68971 1.33871 8.8201 1.39112 8.93782C1.44353 9.05554 1.52893 9.15555 1.63698 9.22574C1.74504 9.29594 1.87113 9.33332 1.99999 9.33335V9.33335ZM5.96599 9.12268C5.98666 9.18602 6.50799 10.6667 7.99999 10.6667C9.51265 10.6667 10.028 9.14202 10.0333 9.12602L11.3 9.54002C11.2673 9.64068 10.4687 12 7.99999 12C5.53132 12 4.73266 9.64068 4.69999 9.54068L5.96599 9.12268Z" fill="#FAB609"/>
</svg>
