<svg width="16" height="16" viewBox="0 0 16 16" fill="none" xmlns="http://www.w3.org/2000/svg">
<path d="M4.00008 14.6667H12.0001C12.3537 14.6667 12.6928 14.5262 12.9429 14.2762C13.1929 14.0261 13.3334 13.687 13.3334 13.3334V2.66671C13.3334 2.31309 13.1929 1.97395 12.9429 1.7239C12.6928 1.47385 12.3537 1.33337 12.0001 1.33337H4.00008C3.64646 1.33337 3.30732 1.47385 3.05727 1.7239C2.80722 1.97395 2.66675 2.31309 2.66675 2.66671V13.3334C2.66675 13.687 2.80722 14.0261 3.05727 14.2762C3.30732 14.5262 3.64646 14.6667 4.00008 14.6667ZM6.00008 12.6667H4.66675V11.3334H6.00008V12.6667ZM6.00008 10H4.66675V8.66671H6.00008V10ZM6.00008 7.33337H4.66675V6.00004H6.00008V7.33337ZM8.66675 12.6667H7.33341V11.3334H8.66675V12.6667ZM8.66675 10H7.33341V8.66671H8.66675V10ZM8.66675 7.33337H7.33341V6.00004H8.66675V7.33337ZM11.3334 12.6667H10.0001V8.66671H11.3334V12.6667ZM11.3334 7.33337H10.0001V6.00004H11.3334V7.33337ZM4.00008 2.66671H12.0001V4.66671H4.00008V2.66671Z" fill="#95C5D5"/>
</svg>
