<svg width="16" height="16" viewBox="0 0 16 16" fill="none" xmlns="http://www.w3.org/2000/svg">
<path d="M10.11 10.388C13.168 7.67265 15.5374 4.10532 14.148 2.54065C13.7074 2.04465 13.092 1.81465 12.4314 1.88532C11.8767 1.94598 11.3067 2.21998 10.732 2.67998C9.82867 2.21198 8.82036 1.98352 7.80351 2.01643C6.78665 2.04935 5.79523 2.34254 4.92403 2.86798C4.24677 3.26897 3.65588 3.80045 3.18564 4.4316C2.7154 5.06274 2.37517 5.78098 2.18469 6.54465C1.88782 7.72098 1.95903 8.96007 2.38869 10.0946C1.67869 10.8966 1.01936 12.546 1.84003 13.47C2.18469 13.8573 2.67803 14.0307 3.27136 14.0307C5.07603 14.0307 7.81003 12.4313 10.11 10.388V10.388ZM12.576 3.20998C12.8147 3.18732 12.9974 3.25265 13.15 3.42532C13.304 3.59932 13.2627 4.05598 12.982 4.71132C12.6805 4.25245 12.3178 3.83684 11.904 3.47598C12.1914 3.30132 12.4214 3.22732 12.576 3.20998V3.20998ZM3.08869 11.412C3.38513 11.8419 3.73656 12.2312 4.13403 12.57C3.45069 12.772 2.99136 12.7587 2.83736 12.584C2.69269 12.422 2.83869 11.8713 3.08869 11.412ZM13.962 7.49932C13.152 8.69732 12.0247 9.94665 10.7767 11.0547C9.48736 12.2007 8.06603 13.1933 6.74336 13.856C7.15377 13.9463 7.57247 13.9937 7.99269 13.9973C9.07691 13.9962 10.1405 13.7008 11.07 13.1427C12.0357 12.571 12.8197 11.7376 13.3315 10.7389C13.8433 9.74022 14.0619 8.61705 13.962 7.49932Z" fill="#0FEC5A"/>
</svg>
