<svg width="16" height="16" viewBox="0 0 16 16" fill="none" xmlns="http://www.w3.org/2000/svg">
<path d="M14.5733 8.31996L12.7666 5.33329C12.6502 5.13178 12.4832 4.96421 12.282 4.84726C12.0809 4.7303 11.8526 4.66803 11.6199 4.66663H9.99992V3.33329C9.99992 3.15648 9.92968 2.98691 9.80466 2.86189C9.67963 2.73686 9.51006 2.66663 9.33325 2.66663H2.66659C2.31296 2.66663 1.97382 2.8071 1.72378 3.05715C1.47373 3.3072 1.33325 3.64634 1.33325 3.99996V10.6666C1.33349 10.9004 1.39521 11.1301 1.51223 11.3325C1.62924 11.5349 1.79743 11.7031 1.99992 11.82C1.97605 12.4388 2.19899 13.0418 2.6197 13.4962C3.0404 13.9507 3.62441 14.2194 4.24325 14.2433C4.86209 14.2672 5.46507 14.0442 5.91953 13.6235C6.37399 13.2028 6.64272 12.6188 6.66659 12H8.73325C8.80697 12.5578 9.08089 13.0698 9.50401 13.4406C9.92712 13.8115 10.4706 14.016 11.0333 14.016C11.5959 14.016 12.1394 13.8115 12.5625 13.4406C12.9856 13.0698 13.2595 12.5578 13.3333 12C13.6869 12 14.026 11.8595 14.2761 11.6094C14.5261 11.3594 14.6666 11.0202 14.6666 10.6666V8.66663C14.6655 8.545 14.6334 8.42567 14.5733 8.31996V8.31996ZM4.33325 12.6666C4.13547 12.6666 3.94213 12.608 3.77768 12.4981C3.61323 12.3882 3.48506 12.232 3.40937 12.0493C3.33368 11.8666 3.31388 11.6655 3.35247 11.4715C3.39105 11.2776 3.48629 11.0994 3.62615 10.9595C3.766 10.8197 3.94418 10.7244 4.13816 10.6858C4.33214 10.6473 4.53321 10.6671 4.71594 10.7427C4.89866 10.8184 5.05484 10.9466 5.16472 11.1111C5.2746 11.2755 5.33325 11.4688 5.33325 11.6666C5.33325 11.9318 5.2279 12.1862 5.04036 12.3737C4.85282 12.5613 4.59847 12.6666 4.33325 12.6666ZM7.99992 7.33329H6.66659V8.66663H5.33325V7.33329H3.99992V5.99996H5.33325V4.66663H6.66659V5.99996H7.99992V7.33329ZM10.9999 12.6666C10.8021 12.6666 10.6088 12.608 10.4443 12.4981C10.2799 12.3882 10.1517 12.232 10.076 12.0493C10.0004 11.8666 9.98055 11.6655 10.0191 11.4715C10.0577 11.2776 10.153 11.0994 10.2928 10.9595C10.4327 10.8197 10.6108 10.7244 10.8048 10.6858C10.9988 10.6473 11.1999 10.6671 11.3826 10.7427C11.5653 10.8184 11.7215 10.9466 11.8314 11.1111C11.9413 11.2755 11.9999 11.4688 11.9999 11.6666C11.9999 11.9318 11.8946 12.1862 11.707 12.3737C11.5195 12.5613 11.2651 12.6666 10.9999 12.6666ZM9.99992 7.99996V5.99996H11.6199L12.8199 7.99996H9.99992Z" fill="#E51654"/>
</svg>
